<svg xmlns="http://www.w3.org/2000/svg" xmlns:xlink="http://www.w3.org/1999/xlink" width="96" height="96"><defs><clipPath id="b"><path d="M0 0h96v96H0z"/></clipPath><filter id="a" filterUnits="objectBoundingBox" x="0%" y="0%" width="100%" height="100%"><feColorMatrix in="SourceGraphic" values="0 0 0 0 1 0 0 0 0 1 0 0 0 0 1 0 0 0 1 0"/></filter><mask id="d"><g filter="url(#a)"><path fill-opacity=".102" d="M0 0h96v96H0z"/></g></mask><g id="c" clip-path="url(#b)"><path d="M47.5 24c0 12.979-10.521 23.5-23.5 23.5S.5 36.979.5 24 11.021.5 24 .5 47.5 11.021 47.5 24zm0 0" transform="scale(2)" fill="none" stroke="#fff"/></g></defs><use xlink:href="#c" mask="url(#d)"/><path d="M31.293 47.293a1 1 0 000 1.414l6.363 6.363a1 1 0 101.414-1.414L33.414 48l5.656-5.656a1 1 0 10-1.414-1.414zM32 49h30v-2H32zm0 0" fill="#fff"/></svg>