<svg width="148" height="28" fill="none" xmlns="http://www.w3.org/2000/svg"><path d="M19.727 2H3.273C1.415 2 0 3.415 0 5.273v16.454C0 23.585 1.415 25 3.273 25h16.454C21.585 25 23 23.585 23 21.727V5.273C23 3.415 21.585 2 19.727 2zM11.5 20.4c3.804 0 6.9-3.008 6.9-6.635 0-.619-.088-1.327-.265-1.857h1.946v9.377a.887.887 0 01-.885.884H3.804a.886.886 0 01-.885-.884v-9.466h2.035a6.735 6.735 0 00-.266 1.858C4.6 17.392 7.696 20.4 11.5 20.4zm0-2.654c-2.477 0-4.423-1.946-4.423-4.334 0-2.389 1.946-4.335 4.423-4.335 2.477 0 4.423 1.946 4.423 4.335 0 2.476-1.946 4.334-4.423 4.334zm8.492-9.465c0 .53-.442.973-.973.973h-2.477a.982.982 0 01-.973-.973V5.892c0-.53.443-.973.973-.973h2.477c.531 0 .973.443.973.973v2.389zM42.598 8.1h2.21V20h-2.21V8.1zm16.003 0V20h-1.82l-6.561-8.058V20h-2.193V8.1h1.819l6.562 8.058V8.1H58.6zm6.877 12.07c-.918 0-1.807-.13-2.669-.391-.85-.26-1.524-.606-2.023-1.037l.765-1.717c.488.385 1.083.703 1.785.952a6.738 6.738 0 002.142.357c.884 0 1.542-.142 1.972-.425.442-.283.663-.657.663-1.122 0-.34-.124-.618-.374-.833a2.416 2.416 0 00-.918-.527 20.655 20.655 0 00-1.53-.425c-.906-.215-1.643-.43-2.21-.646a3.742 3.742 0 01-1.445-1.003c-.396-.465-.595-1.088-.595-1.87 0-.657.176-1.252.527-1.785.363-.544.901-.975 1.615-1.292.726-.317 1.61-.476 2.652-.476a8.5 8.5 0 012.142.272c.703.181 1.31.442 1.82.782l-.698 1.717a6.876 6.876 0 00-1.632-.697 6.105 6.105 0 00-1.649-.238c-.872 0-1.524.147-1.955.442-.419.295-.629.686-.629 1.173 0 .34.12.618.357.833.25.215.561.385.935.51s.884.266 1.53.425c.884.204 1.61.42 2.176.646.567.215 1.049.55 1.445 1.003.408.453.612 1.065.612 1.836a3.1 3.1 0 01-.544 1.785c-.35.533-.89.958-1.615 1.275-.725.317-1.609.476-2.652.476zm9.25-10.2h-3.943V8.1h10.098v1.87h-3.944V20h-2.21V9.97zm14.934 7.276h-5.95L82.539 20H80.26l5.355-11.9h2.176L93.164 20h-2.312l-1.19-2.754zm-.731-1.734l-2.244-5.202-2.227 5.202h4.47zm13.706-1.598h2.091v4.743a6.65 6.65 0 01-2.142 1.122 8.22 8.22 0 01-2.516.391c-1.213 0-2.306-.26-3.28-.782a5.934 5.934 0 01-2.296-2.193c-.555-.93-.833-1.978-.833-3.145s.278-2.216.833-3.145a5.812 5.812 0 012.295-2.176c.986-.533 2.091-.799 3.315-.799.997 0 1.904.164 2.72.493.816.329 1.502.81 2.057 1.445l-1.394 1.36c-.907-.907-2-1.36-3.281-1.36-.839 0-1.587.176-2.244.527a3.916 3.916 0 00-1.53 1.479c-.363.635-.544 1.36-.544 2.176 0 .793.181 1.507.544 2.142a4.04 4.04 0 001.53 1.496c.657.363 1.4.544 2.227.544.929 0 1.745-.204 2.448-.612v-3.706zM115.429 20l-2.431-3.485a4.542 4.542 0 01-.459.017h-2.686V20h-2.21V8.1h4.896c1.031 0 1.927.17 2.686.51.771.34 1.36.827 1.768 1.462.408.635.612 1.388.612 2.261 0 .895-.221 1.666-.663 2.312-.431.646-1.054 1.128-1.87 1.445l2.737 3.91h-2.38zm-.051-7.667c0-.76-.249-1.343-.748-1.751-.499-.408-1.23-.612-2.193-.612h-2.584v4.743h2.584c.963 0 1.694-.204 2.193-.612.499-.42.748-1.009.748-1.768zm12.417 4.913h-5.95L120.672 20h-2.278l5.355-11.9h2.176l5.372 11.9h-2.312l-1.19-2.754zm-.731-1.734l-2.244-5.202-2.227 5.202h4.471zM143.742 20l-.017-7.888-3.91 6.528h-.986l-3.91-6.426V20h-2.108V8.1h1.819l4.726 7.888 4.641-7.888h1.819l.017 11.9h-2.091z" fill="#fff"/></svg>