<svg width="15" height="12" fill="none" xmlns="http://www.w3.org/2000/svg"><path d="M14.149 4.832c0-.304-.051-.66-.051-1.065a71.29 71.29 0 00-.152-1.166c-.101-.405-.254-.71-.558-.963a1.713 1.713 0 00-.963-.456C11.259 1.03 9.535.979 7.203.979c-2.332 0-4.106.05-5.222.203-.354.05-.71.203-.963.456a2.023 2.023 0 00-.557.963c-.102.355-.152.71-.152 1.166-.051.406-.051.76-.051 1.065v2.332c0 .304.05.659.05 1.065.051.405.102.81.153 1.166.101.405.253.71.557.963.254.253.609.405.963.456 1.167.152 2.89.203 5.222.203 2.332 0 4.107-.05 5.222-.203.355-.05.71-.203.963-.456a2.02 2.02 0 00.558-.963 4.08 4.08 0 00.152-1.166c.05-.406.05-.76.05-1.065V4.832zM9.89 6.404L5.885 8.888a.387.387 0 01-.253.101c-.102 0-.152 0-.254-.05a.532.532 0 01-.253-.457V3.463c0-.203.101-.355.253-.456a.46.46 0 01.507 0L9.89 5.49c.152.101.254.253.254.406 0 .152-.102.405-.254.507z" fill="#fff"/></svg>